<?xml version="1.0" encoding="UTF-8" standalone="no"?>
<!-- Created with Inkscape (http://www.inkscape.org/) -->

<svg
   width="200"
   height="200"
   viewBox="0 0 52.91666 52.91666"
   version="1.1"
   id="svg5"
   xml:space="preserve"
   inkscape:version="1.2.2 (1:1.2.2+202212051552+b0a8486541)"
   sodipodi:docname="logo_picomazing.svg"
   inkscape:export-filename="logo_picomazing.png"
   inkscape:export-xdpi="96"
   inkscape:export-ydpi="96"
   xmlns:inkscape="http://www.inkscape.org/namespaces/inkscape"
   xmlns:sodipodi="http://sodipodi.sourceforge.net/DTD/sodipodi-0.dtd"
   xmlns="http://www.w3.org/2000/svg"
   xmlns:svg="http://www.w3.org/2000/svg"><sodipodi:namedview
     id="namedview7"
     pagecolor="#ffffff"
     bordercolor="#000000"
     borderopacity="0.25"
     inkscape:showpageshadow="2"
     inkscape:pageopacity="0.0"
     inkscape:pagecheckerboard="0"
     inkscape:deskcolor="#d1d1d1"
     inkscape:document-units="mm"
     showgrid="false"
     inkscape:zoom="2.2200774"
     inkscape:cx="-25.449563"
     inkscape:cy="98.419991"
     inkscape:window-width="1920"
     inkscape:window-height="1016"
     inkscape:window-x="0"
     inkscape:window-y="27"
     inkscape:window-maximized="1"
     inkscape:current-layer="layer1" /><defs
     id="defs2"><inkscape:path-effect
       effect="fillet_chamfer"
       id="path-effect1130"
       is_visible="true"
       lpeversion="1"
       nodesatellites_param="F,0,0,1,0,0,0,1 @ F,0,0,1,0,0,0,1 | F,0,0,1,0,0,0,1 @ F,0,0,1,0,0,0,1 @ F,0,0,1,0,0,0,1 @ F,0,0,1,0,5.2916667,0,1 @ F,0,0,1,0,5.2916667,0,1 @ F,0,0,1,0,0,0,1 @ F,0,0,1,0,0,0,1 @ F,0,1,1,0,13.229167,0,1 @ F,0,1,1,0,13.229167,0,1 @ F,0,0,1,0,0,0,1"
       unit="px"
       method="auto"
       mode="F"
       radius="50"
       chamfer_steps="1"
       flexible="false"
       use_knot_distance="true"
       apply_no_radius="true"
       apply_with_radius="true"
       only_selected="true"
       hide_knots="false" /><inkscape:path-effect
       effect="bspline"
       id="path-effect1128"
       is_visible="true"
       lpeversion="1"
       weight="0"
       steps="2"
       helper_size="0"
       apply_no_weight="true"
       apply_with_weight="true"
       only_selected="false" /></defs><g
     inkscape:label="Layer 1"
     inkscape:groupmode="layer"
     id="layer1"
     transform="translate(-78.184243,-82.152993)"><path
       style="color:#000000;fill:#005067;stroke:#002834;stroke-width:1.44456;stroke-linecap:round;stroke-linejoin:round;stroke-dasharray:none"
       d="m 88.02983,84.19819 a 2.0225799,2.0225799 0 0 0 -2.021809,2.021811 v 8.667333 a 2.0225799,2.0225799 0 0 0 2.021809,2.02394 h 18.78064 c 2.09825,0 3.75571,1.657456 3.75571,3.755706 0,2.09824 -1.65746,3.7557 -3.75571,3.7557 H 96.697165 a 2.0225799,2.0225799 0 0 0 -2.02181,2.02181 V 128.9787 H 88.02983 a 2.0223777,2.0223777 0 0 0 -2.021809,2.02394 2.0223777,2.0223777 0 0 0 2.021809,2.02182 h 8.667335 a 2.0225799,2.0225799 0 0 0 2.023941,-2.02182 v -22.53635 h 8.089364 c 4.2842,0 7.79932,-3.51512 7.79932,-7.79931 0,-4.284196 -3.51512,-7.801457 -7.79932,-7.801457 H 90.053773 v -4.621582 h 16.756697 c 6.88509,0 12.42304,5.537958 12.42304,12.423039 0,6.88507 -5.53796,12.42303 -12.42304,12.42303 a 2.0223777,2.0223777 0 0 0 -2.02394,2.02181 2.0223777,2.0223777 0 0 0 2.02394,2.02181 c 9.07102,0 16.46666,-7.39563 16.46666,-16.46665 0,-9.071029 -7.39564,-16.46879 -16.46666,-16.46879 z m 0,20.22449 a 2.0223777,2.0223777 0 0 0 -2.021809,2.02181 v 15.7522 a 2.0223777,2.0223777 0 0 0 2.021809,2.02395 2.0223777,2.0223777 0 0 0 2.023943,-2.02395 v -15.7522 a 2.0223777,2.0223777 0 0 0 -2.023943,-2.02181 z"
       id="path365" /></g></svg>
